<?xml version="1.0" encoding="UTF-8"?>
<svg version="1.1" xmlns="http://www.w3.org/2000/svg" width="194" height="134">
<path d="M0 0 C64.02 0 128.04 0 194 0 C194 44.22 194 88.44 194 134 C129.98 134 65.96 134 0 134 C0 89.78 0 45.56 0 0 Z " fill="#013994" transform="translate(0,0)"/>
<path d="M0 0 C1.04027344 -0.03738281 2.08054687 -0.07476563 3.15234375 -0.11328125 C6.76099103 0.41469533 7.87262534 1.45278132 10.0625 4.3125 C11.53309559 11.37135883 7.73346194 17.44510476 4.0625 23.3125 C2.64286412 24.8898732 1.1854109 26.43425845 -0.3125 27.9375 C-3.22381938 30.92855428 -3.22381938 30.92855428 -4.26953125 34.84375 C-4.17468051 36.54593628 -4.05439512 38.2469345 -3.90625 39.9453125 C-3.95173352 43.39068901 -5.32527714 45.25635807 -7.35546875 47.9375 C-10.98562522 51.09259896 -15.09068884 51.60068233 -19.75 51.9375 C-20.72582031 52.01226562 -21.70164063 52.08703125 -22.70703125 52.1640625 C-23.44308594 52.21304688 -24.17914063 52.26203125 -24.9375 52.3125 C-25.14246094 53.38371094 -25.34742188 54.45492187 -25.55859375 55.55859375 C-25.83052709 56.95576851 -26.10267352 58.35290181 -26.375 59.75 C-26.50970703 60.45705078 -26.64441406 61.16410156 -26.78320312 61.89257812 C-27.82421875 67.19921875 -27.82421875 67.19921875 -28.9375 68.3125 C-30.5875 68.3125 -32.2375 68.3125 -33.9375 68.3125 C-32.4525 60.3925 -32.4525 60.3925 -30.9375 52.3125 C-32.360625 53.075625 -33.78375 53.83875 -35.25 54.625 C-42.33253855 58.1612462 -49.90770363 60.96356457 -57.9375 60.3125 C-57.9375 59.6525 -57.9375 58.9925 -57.9375 58.3125 C-56.99390625 58.16554687 -56.0503125 58.01859375 -55.078125 57.8671875 C-42.01579033 55.84568341 -42.01579033 55.84568341 -30.9375 49.3125 C-28.44500134 44.31919436 -27.73446778 38.77822942 -26.9375 33.3125 C-26.61337509 31.64401808 -26.28454413 29.97636576 -25.9375 28.3125 C-23.33326408 28.28552863 -20.72930756 28.26567511 -18.125 28.25 C-17.38701172 28.24162109 -16.64902344 28.23324219 -15.88867188 28.22460938 C-12.63827932 28.20990172 -10.04345105 28.27718298 -6.9375 29.3125 C-5.63911824 27.5883698 -4.34906253 25.85796768 -3.0625 24.125 C-2.34320313 23.16207031 -1.62390625 22.19914062 -0.8828125 21.20703125 C2.31547691 16.44813074 3.3289237 13.04060955 3.0625 7.3125 C-7.48441942 5.70364789 -15.08930077 10.2636968 -23.9375 15.3125 C-25.37416016 16.10527344 -25.37416016 16.10527344 -26.83984375 16.9140625 C-29.51141565 18.69511044 -29.94024913 20.32074739 -30.9375 23.3125 C-31.5975 23.9725 -32.2575 24.6325 -32.9375 25.3125 C-33.70835938 25.28027344 -34.47921875 25.24804688 -35.2734375 25.21484375 C-40.22941353 25.39651443 -43.24837371 29.36054946 -46.54638672 32.78027344 C-54.80424485 41.87580128 -61.00386055 52.10705589 -65.9375 63.3125 C-66.53498047 64.59060547 -66.53498047 64.59060547 -67.14453125 65.89453125 C-71.03709815 75.15213417 -71.7419941 85.42203013 -72.9375 95.3125 C-73.2675 95.3125 -73.5975 95.3125 -73.9375 95.3125 C-75.25974437 68.57378043 -62.63458425 46.4993382 -45.44140625 27.17578125 C-42.07815424 23.40324697 -42.07815424 23.40324697 -40.4375 18.75 C-39.9375 16.3125 -39.9375 16.3125 -37.9375 14.3125 C-36.4525 14.4671875 -36.4525 14.4671875 -34.9375 14.625 C-30.1557032 14.77289062 -27.37541298 12.03673801 -23.703125 9.265625 C-16.59534514 4.24600646 -8.76638742 0.20588549 0 0 Z " fill="#EEF2F8" transform="translate(103.9375,21.6875)"/>
<path d="M0 0 C1.04027344 -0.03738281 2.08054687 -0.07476563 3.15234375 -0.11328125 C6.76099103 0.41469533 7.87262534 1.45278132 10.0625 4.3125 C11.53725561 11.39132695 7.74171423 17.43318999 4.0625 23.3125 C1.23933063 26.83342831 -1.754367 30.11521974 -4.9375 33.3125 C-5.9275 31.3325 -5.9275 31.3325 -6.9375 29.3125 C-6.38320312 28.57644531 -5.82890625 27.84039062 -5.2578125 27.08203125 C-4.53335938 26.10621094 -3.80890625 25.13039063 -3.0625 24.125 C-2.34320313 23.16207031 -1.62390625 22.19914062 -0.8828125 21.20703125 C2.31547691 16.44813074 3.3289237 13.04060955 3.0625 7.3125 C-7.48441942 5.70364789 -15.08930077 10.2636968 -23.9375 15.3125 C-25.37416016 16.10527344 -25.37416016 16.10527344 -26.83984375 16.9140625 C-29.51141565 18.69511044 -29.94024913 20.32074739 -30.9375 23.3125 C-31.5975 23.9725 -32.2575 24.6325 -32.9375 25.3125 C-33.70835938 25.28027344 -34.47921875 25.24804688 -35.2734375 25.21484375 C-40.22941353 25.39651443 -43.24837371 29.36054946 -46.54638672 32.78027344 C-54.80424485 41.87580128 -61.00386055 52.10705589 -65.9375 63.3125 C-66.53498047 64.59060547 -66.53498047 64.59060547 -67.14453125 65.89453125 C-71.03709815 75.15213417 -71.7419941 85.42203013 -72.9375 95.3125 C-73.2675 95.3125 -73.5975 95.3125 -73.9375 95.3125 C-75.25974437 68.57378043 -62.63458425 46.4993382 -45.44140625 27.17578125 C-42.07815424 23.40324697 -42.07815424 23.40324697 -40.4375 18.75 C-39.9375 16.3125 -39.9375 16.3125 -37.9375 14.3125 C-36.4525 14.4671875 -36.4525 14.4671875 -34.9375 14.625 C-30.1557032 14.77289062 -27.37541298 12.03673801 -23.703125 9.265625 C-16.59534514 4.24600646 -8.76638742 0.20588549 0 0 Z " fill="#EEF2F8" transform="translate(103.9375,21.6875)"/>
<path d="M0 0 C2 2 2 2 2.25 5.5625 C2.13243253 10.20641514 1.15002576 14.51645361 0 19 C-0.28617188 20.16208984 -0.28617188 20.16208984 -0.578125 21.34765625 C-1.04384543 23.23382399 -1.52074817 25.11722494 -2 27 C-1.34 27 -0.68 27 0 27 C0 27.99 0 28.98 0 30 C-2.375 30.125 -2.375 30.125 -5 30 C-5.66 29.34 -6.32 28.68 -7 28 C-7.515625 28.515625 -8.03125 29.03125 -8.5625 29.5625 C-11 31 -11 31 -14.625 30.875 C-18 30 -18 30 -20 27 C-20.49908545 23.25685911 -20.14278856 21.29747616 -18.5 17.875 C-14.40150083 13.16172595 -9.20945436 10.7761818 -3 10 C-2.67 8.02 -2.34 6.04 -2 4 C-6.455 4.495 -6.455 4.495 -11 5 C-11.33 6.65 -11.66 8.3 -12 10 C-13.32 10 -14.64 10 -16 10 C-15.75499132 6.40653943 -15.363706 4.44583317 -13.0625 1.625 C-8.79842545 -0.63757017 -4.74886581 -0.72283621 0 0 Z " fill="#ECF0F7" transform="translate(117,60)"/>
<path d="M0 0 C2.0078125 0.23046875 2.0078125 0.23046875 5.0078125 2.23046875 C5.3359375 4.98046875 5.3359375 4.98046875 5.2578125 8.23046875 C5.24234375 9.30296875 5.226875 10.37546875 5.2109375 11.48046875 C5.0078125 14.23046875 5.0078125 14.23046875 4.0078125 16.23046875 C-0.9421875 16.23046875 -5.8921875 16.23046875 -10.9921875 16.23046875 C-10.6621875 19.20046875 -10.3321875 22.17046875 -9.9921875 25.23046875 C-8.3421875 25.56046875 -6.6921875 25.89046875 -4.9921875 26.23046875 C-4.4146875 25.24046875 -3.8371875 24.25046875 -3.2421875 23.23046875 C-2.4996875 22.24046875 -1.7571875 21.25046875 -0.9921875 20.23046875 C0.3278125 20.23046875 1.6478125 20.23046875 3.0078125 20.23046875 C1.74129475 25.67649508 -0.31776408 28.17411497 -4.9921875 31.23046875 C-8.1171875 31.79296875 -8.1171875 31.79296875 -10.9921875 31.23046875 C-13.69900877 29.1180674 -14.86042537 27.94737922 -15.48828125 24.53125 C-15.32892589 16.40412642 -14.8721359 9.52183835 -9.3671875 3.23046875 C-8.1915625 2.24046875 -8.1915625 2.24046875 -6.9921875 1.23046875 C-5.11574989 -0.64596886 -2.49413049 0.05061888 0 0 Z " fill="#ECF0F7" transform="translate(159.9921875,59.76953125)"/>
<path d="M0 0 C1.64670065 2.90594231 1.24712917 5.61321805 1.0625 8.875 C-0.5875 8.875 -2.2375 8.875 -3.9375 8.875 C-4.2675 7.225 -4.5975 5.575 -4.9375 3.875 C-6.5875 3.875 -8.2375 3.875 -9.9375 3.875 C-10.5884259 5.12235567 -11.23301669 6.37301832 -11.875 7.625 C-12.23464844 8.32109375 -12.59429687 9.0171875 -12.96484375 9.734375 C-14.64635452 13.43504931 -15.05955095 16.57553513 -15 20.625 C-14.98646484 21.82382813 -14.98646484 21.82382813 -14.97265625 23.046875 C-14.96105469 23.65015625 -14.94945313 24.2534375 -14.9375 24.875 C-9.98235498 24.00027407 -9.98235498 24.00027407 -6.5 20.75 C-6.314375 20.13125 -6.12875 19.5125 -5.9375 18.875 C-4.6175 18.875 -3.2975 18.875 -1.9375 18.875 C-2.35215717 23.71266699 -4.3573615 25.73146376 -7.9375 28.875 C-10.82611709 30.31930855 -12.73397701 30.25188506 -15.9375 29.875 C-18.85648426 27.90785843 -20.61154621 26.43711814 -21.3515625 22.890625 C-21.63066516 15.73544778 -19.98806003 8.06818726 -15.5 2.375 C-10.70329714 -2.30471011 -6.27904219 -3.64589547 0 0 Z " fill="#EAEFF6" transform="translate(141.9375,61.125)"/>
<path d="M0 0 C1.60332791 -0.08121924 3.20784026 -0.13929134 4.8125 -0.1875 C6.15248047 -0.23970703 6.15248047 -0.23970703 7.51953125 -0.29296875 C10 0 10 0 11.83203125 1.26171875 C13.67035412 3.99768423 13.04289346 6.00541372 12.515625 9.12890625 C11.85832548 11.5141068 11.07353204 12.64422905 9 14 C6.24921116 14.91692961 4.64051087 15.10886083 1.8125 15.0625 C-0.0746875 15.0315625 -0.0746875 15.0315625 -2 15 C-1.47462276 9.9697924 -0.89405214 4.98114761 0 0 Z " fill="#073E97" transform="translate(82,54)"/>
<path d="M0 0 C0.66 0 1.32 0 2 0 C0.52250204 4.22924021 -1.63952688 7.51683993 -4.1875 11.1875 C-13.79194866 25.76533368 -17.21965532 40.80695705 -19 58 C-19.33 58 -19.66 58 -20 58 C-21.0521792 36.72259846 -13.10860795 18.04559402 -1 1 C-0.67 0.67 -0.34 0.34 0 0 Z " fill="#D0DAEB" transform="translate(50,59)"/>
<path d="M0 0 C1.40253926 4.20761779 -0.09397469 6.11735584 -2 10 C-4 12 -4 12 -6.625 12.125 C-7.40875 12.08375 -8.1925 12.0425 -9 12 C-9.8125 9.8125 -9.8125 9.8125 -10 7 C-7.11871539 3.35602241 -4.4214664 1.38960373 0 0 Z " fill="#0C4399" transform="translate(112,74)"/>
<path d="M0 0 C1 1 1 1 1.0625 4.5625 C1.041875 5.696875 1.02125 6.83125 1 8 C-2.3 8 -5.6 8 -9 8 C-8.64005447 5.3364031 -8.28838998 3.41816548 -6.75 1.1875 C-4.3961523 -0.40975379 -2.78481156 -0.29313806 0 0 Z " fill="#164A9D" transform="translate(160,64)"/>
<path d="M0 0 C1.32 0.66 2.64 1.32 4 2 C3.67 3.32 3.34 4.64 3 6 C1.35 5.67 -0.3 5.34 -2 5 C-1.125 1.125 -1.125 1.125 0 0 Z " fill="#6184BC" transform="translate(169,59)"/>
</svg>
